<?xml version="1.0" encoding="utf-8"?>
<!-- Generator: Adobe Illustrator 19.0.0, SVG Export Plug-In . SVG Version: 6.00 Build 0)  -->
<svg version="1.1" id="Warstwa_1" xmlns="http://www.w3.org/2000/svg" xmlns:xlink="http://www.w3.org/1999/xlink" x="0px" y="0px"
	 viewBox="0 0 208 208" style="enable-background:new 0 0 208 208;" xml:space="preserve">
<style type="text/css">
	.st0{fill:#0072CE;}
</style>
<path class="st0" d="M89.3,80.5l-1.5,9.3l-4.5,19.8h12.3l-5-19.8L89.3,80.5z M128.5,79h15.3c0.6,0,1,0.4,1,1v64c0,0.6-0.4,1-1,1
	h-15.3c-0.6,0-1-0.4-1-1V80C127.5,79.4,127.9,79,128.5,79z M83.3,52.8h12.5c0.4,0,0.9,0.3,1,0.8l26,90c0.1,0.2,0.3,0.3,0.3,0.5
	c0,0.6-0.5,1-1,1h-17c-0.5,0-0.9-0.3-1-0.8l-5.3-19.8H79.3L74,144.3c-0.1,0.4-0.3,0.8-0.8,0.8h-16c-0.3,0-0.8-0.3-1-0.5
	s-0.1-0.5,0-0.8l26-90.3C82.4,53.1,82.8,52.8,83.3,52.8z M136,52c3.2,0,5.8,1,7.8,2.8c2,1.8,3,4.3,3,7.3s-1,5.3-3,7
	c-2,1.7-4.6,2.5-7.8,2.5c-3.3,0-5.7-1-7.5-2.8c-1.8-1.8-2.8-3.9-2.8-6.8s0.9-5.2,2.8-7C130.3,53.2,132.8,52,136,52z M39,0
	C17.5,0,0,17.5,0,39v130c0,21.5,17.5,39,39,39h130c21.5,0,39-17.5,39-39V39c0-21.5-17.5-39-39-39H39z"/>
</svg>
