<?xml version="1.0" encoding="utf-8"?>
<!-- Generator: Adobe Illustrator 19.0.0, SVG Export Plug-In . SVG Version: 6.00 Build 0)  -->
<svg version="1.1" id="Warstwa_1" xmlns="http://www.w3.org/2000/svg" xmlns:xlink="http://www.w3.org/1999/xlink" x="0px" y="0px"
	 viewBox="-65 157 480 480" style="enable-background:new -65 157 480 480;" xml:space="preserve">
<style type="text/css">
	.st0{fill:#0072CE;}
</style>
<g>
	<path class="st0" d="M208,340.5c0-15.2-12.3-27.5-27.5-27.5c-0.8,0-42.5,0-42.5,0v55c0,0,41.7,0,42.5,0
		C195.7,368,208,355.7,208,340.5z"/>
	<path class="st0" d="M188,413h-50v60h50c16.6,0,30-13.4,30-30C218,426.4,204.6,413,188,413z"/>
	<path class="st0" d="M298,213H38c-27.6,0-50,22.4-50,50v260c0,27.6,22.4,50,50,50h260c27.6,0,50-22.4,50-50V263
		C348,235.4,325.6,213,298,213z M246.4,495c-14.5,11.7-35.8,17.8-64.1,18H78V273h93.5c29.9,0,47.5,7.6,63.1,18.9
		c15.6,11.3,23.4,27.8,23.4,49.3c0,12.4-2.8,23-8.3,31.8c-9.2,13.8-19.4,17.5-19.4,17.5c12.1,3.3,21.5,9.5,28,18.5s9.7,20,9.7,33
		C268,465.5,260.8,483.1,246.4,495z"/>
</g>
</svg>
