<?xml version="1.0" encoding="utf-8"?>
<!-- Generator: Adobe Illustrator 19.0.0, SVG Export Plug-In . SVG Version: 6.00 Build 0)  -->
<svg version="1.1" id="Warstwa_1" xmlns="http://www.w3.org/2000/svg" xmlns:xlink="http://www.w3.org/1999/xlink" x="0px" y="0px"
	 viewBox="0 0 500 500" style="enable-background:new 0 0 500 500;" xml:space="preserve">
<style type="text/css">
	.st0{fill:#0072CE;}
</style>
<path class="st0" d="M368.5,159.2H180.4l4.5,50.9h179.1l-13.4,150.4l-100.6,30.4l-1-0.3l-99.4-30.1l-5.4-61.3h48.7l2.1,23.8
	l55.6,11.6l54.6-11.6l5.8-64.4H140.5l-13.2-148h245.6L368.5,159.2z M452.7,23.2c-1.9-2.1-4.6-3.2-7.4-3.2H54.6
	c-2.8,0-5.5,1.2-7.4,3.2c-1.9,2.1-2.9,4.8-2.6,7.7l35.2,394.3c0.4,4.1,3.2,7.6,7.2,8.8l160.1,45.7c0.9,0.3,1.8,0.4,2.7,0.4
	c0.9,0,1.8-0.1,2.7-0.4l160.2-45.7c4-1.2,6.8-4.6,7.2-8.8l35.2-394.3C455.6,28.1,454.6,25.3,452.7,23.2z"/>
</svg>
