<?xml version="1.0" encoding="utf-8"?>
<!-- Generator: Adobe Illustrator 19.0.0, SVG Export Plug-In . SVG Version: 6.00 Build 0)  -->
<svg version="1.1" id="Warstwa_1" xmlns="http://www.w3.org/2000/svg" xmlns:xlink="http://www.w3.org/1999/xlink" x="0px" y="0px"
	 viewBox="0 0 500 500" style="enable-background:new 0 0 500 500;" xml:space="preserve">
<style type="text/css">
	.st0{fill:#0072CE;}
</style>
<path class="st0" d="M356.8,420c-35.4,0-55.5-17.9-66.8-40l30-20c8.2,13.4,17.1,26.1,35.9,26.1c15.8,0,24.1-7.9,24.1-18.8
	c0-13-8.6-17.7-26-25.3l-9.5-4.1c-27.5-11.7-45.9-26.4-45.9-57.5c0-28.6,21.8-50.4,55.9-50.4c24.3,0,41.7,8.4,54.3,30.5l-29.7,19.1
	c-6.6-11.8-13.6-16.4-24.6-16.4c-11.2,0-18.2,7.1-18.2,16.4c0,11.4,7.1,16.1,23.4,23.2l9.5,4.1c32.5,13.9,50.7,28,50.7,59.9
	C420,401.2,393,420,356.8,420z M270,361.8c0,40-23.4,58.2-57.7,58.2c-30.9,0-53.2-20.7-62.3-40l31.4-19c6.1,10.7,15.3,19,28.6,19
	c12.7,0,20-5,20-24.3V230h40V361.8z M433.4,40H66.7C52,40,40,52,40,66.7v366.6C40,448,52,460,66.7,460h366.6
	c14.7,0,26.7-12,26.7-26.6V66.7C460,52,448,40,433.4,40z"/>
</svg>
