<?xml version="1.0" encoding="utf-8"?>
<!-- Generator: Adobe Illustrator 19.0.0, SVG Export Plug-In . SVG Version: 6.00 Build 0)  -->
<svg version="1.1" id="Warstwa_1" xmlns="http://www.w3.org/2000/svg" xmlns:xlink="http://www.w3.org/1999/xlink" x="0px" y="0px"
	 viewBox="0 0 398.4 281.7" style="enable-background:new 0 0 398.4 281.7;" xml:space="preserve">
<style type="text/css">
	.st0{fill:none;stroke:#256FB6;stroke-width:10;stroke-miterlimit:10;}
	.st1{fill:#256FB6;}
</style>
<g id="XMLID_5_">
	<g id="XMLID_1_">
		<path id="XMLID_8_" class="st0" d="M361.4,135l-149.9,62.7c-2.9,1.2-6.2-0.2-7.4-3l-35.6-85.1c-1.2-2.9,0.2-6.2,3-7.4l149.9-62.7
			c2.9-1.2,6.2,0.2,7.4,3l35.6,85.1C365.6,130.5,364.2,133.8,361.4,135z"/>
		<path id="XMLID_7_" class="st0" d="M322.2,41.1l-42.4,71.5l-5.4,9.1c-1.6,4-6,5.8-10,4.2l-11.2-2.7l-81.1-19.4
			c0.8-1.5,2.1-2.7,3.7-3.4l141.1-59C318.7,40.6,320.5,40.6,322.2,41.1z"/>
		<path id="XMLID_6_" class="st0" d="M360.7,133.3c-0.6,2.1-2.1,3.8-4.2,4.7l-139.9,58.5c-1.9,0.8-3.9,0.7-5.7,0l42.6-72.5l11.1,2.7
			c3.9,1.7,8.3-0.2,9.9-4.1l5.3-9.1L360.7,133.3z"/>
	</g>
	<g id="XMLID_2_">
		<g id="XMLID_32_">
			<path id="XMLID_38_" class="st1" d="M127.6,148.8c16-6.7,31.9-13.3,47.9-20c5.9-2.4,3.3-12.1-2.7-9.6c-16,6.7-31.9,13.3-47.9,20
				C119.1,141.6,121.7,151.3,127.6,148.8L127.6,148.8z"/>
		</g>
	</g>
	<g id="XMLID_9_">
		<g id="XMLID_39_">
			<path id="XMLID_44_" class="st1" d="M60.5,176.9c12.7-5.3,25.4-10.6,38-15.9c5.9-2.4,3.3-12.1-2.7-9.6
				c-12.7,5.3-25.4,10.6-38,15.9C52,169.7,54.6,179.4,60.5,176.9L60.5,176.9z"/>
		</g>
	</g>
	<g id="XMLID_3_">
		<g id="XMLID_40_">
			<path id="XMLID_49_" class="st1" d="M63.9,210.1c29.2-12.2,58.4-24.4,87.5-36.6c4.2-1.7,8.3-3.5,12.5-5.2
				c5.9-2.4,3.3-12.1-2.7-9.6c-29.2,12.2-58.4,24.4-87.5,36.6c-4.2,1.7-8.3,3.5-12.5,5.2C55.4,202.9,57.9,212.6,63.9,210.1
				L63.9,210.1z"/>
		</g>
	</g>
	<g id="XMLID_4_">
		<g id="XMLID_50_">
			<path id="XMLID_58_" class="st1" d="M161.3,204.1c13-5.4,25.9-10.8,38.9-16.3c5.9-2.4,3.3-12.1-2.7-9.6
				c-13,5.4-25.9,10.8-38.9,16.3C152.8,196.9,155.3,206.6,161.3,204.1L161.3,204.1z"/>
		</g>
	</g>
	<g id="XMLID_19_">
		<g id="XMLID_59_">
			<path id="XMLID_63_" class="st1" d="M84.5,236.2c17.2-7.2,34.5-14.4,51.7-21.6c5.9-2.4,3.3-12.1-2.7-9.6
				c-17.2,7.2-34.5,14.4-51.7,21.6C76,229,78.6,238.6,84.5,236.2L84.5,236.2z"/>
		</g>
	</g>
</g>
</svg>
