<?xml version="1.0" encoding="utf-8"?>
<!-- Generator: Adobe Illustrator 19.0.0, SVG Export Plug-In . SVG Version: 6.00 Build 0)  -->
<svg version="1.1" id="Warstwa_1" xmlns="http://www.w3.org/2000/svg" xmlns:xlink="http://www.w3.org/1999/xlink" x="0px" y="0px"
	 viewBox="0 0 208 208" style="enable-background:new 0 0 208 208;" xml:space="preserve">
<style type="text/css">
	.st0{fill:#0072CE;}
</style>
<path class="st0" d="M153.9,126.1c0-3.7-0.6-6.8-1.8-9.3c-1.2-2.5-2.8-4.6-4.6-6.4c-1.9-1.7-3.8-3.2-5.9-4.3c-2-1.1-3.9-2.2-5.7-3.2
	c-1.7-1-3.2-2-4.2-3c-0.9-0.9-1.4-1.9-1.4-3.3c0-2,0.6-4.3,5.3-4.3c2.1,0,4.3,0.3,6.5,0.9c2.2,0.6,4.2,1.3,5.8,1.9
	c0.3,0.1,0.6,0.1,0.8,0c0.3-0.1,0.5-0.3,0.5-0.6l3.6-11.8c0.1-0.4,0-0.9-0.4-1.1c-2-1.3-4.8-2.3-8.2-3.1c-3.4-0.8-7-1.3-10.8-1.3
	c-6.6,0-11.6,1.7-15.1,5.2c-3.4,3.4-5.2,8.3-5.2,14.5c0,3.6,0.6,6.7,1.8,9.2c1.2,2.4,2.8,4.5,4.6,6.2c1.9,1.7,3.8,3.1,5.9,4.2
	c2,1.1,3.9,2.2,5.7,3.3c1.7,1,3.1,2.1,4.2,3.3c1,1.1,1.5,2.3,1.5,3.9c0,1.6-0.5,2.8-1.5,3.5c-1.1,0.8-2.6,1.2-4.3,1.2
	c-2.5,0-4.8-0.4-7.1-1.1c-2.3-0.8-4.3-1.6-6-2.6c-0.3-0.2-0.6-0.2-0.8-0.1c-0.3,0.1-0.5,0.3-0.6,0.6l-4.2,12.3
	c-0.2,0.4,0,0.9,0.4,1.2c2.1,1.4,5,2.6,8.4,3.5c3.4,0.9,7,1.3,10.5,1.3c7.3,0,13-1.9,16.7-5.7C152,137.2,153.9,132.2,153.9,126.1z
	 M109.8,97.4c1.6-4,2.4-9,2.4-14.7c0-6.3-1-11.6-2.9-15.6s-4.5-7.2-7.6-9.4c-3.1-2.2-6.7-3.7-10.6-4.5c-7.4-1.4-15.2-1.3-22.9-0.5
	c-3.7,0.4-7.1,0.9-10.2,1.6c-0.5,0.1-0.8,0.5-0.8,1V144c0,0.6,0.4,1,1,1h16.1c0.5,0,1-0.4,1-1v-29.7c0.2,0,0.4,0.1,0.6,0.1
	c0.8,0.1,1.7,0.2,2.5,0.2c0.9,0,1.7,0.1,2.5,0.1h1.7c3.8,0,7.5-0.6,11-1.7c3.6-1.1,6.8-3,9.5-5.6C106,104.8,108.2,101.4,109.8,97.4z
	 M208,39v130c0,21.5-17.5,39-39,39H39c-21.5,0-39-17.5-39-39V39C0,17.5,17.5,0,39,0h130C190.5,0,208,17.5,208,39z M92.4,75.8
	c0.7,1.8,1,4.1,1,6.8c0,3.2-0.4,5.9-1.1,7.9c-0.7,2-1.7,3.6-2.9,4.7c-1.2,1.1-2.6,1.9-4.2,2.4c-1.6,0.5-3.3,0.8-5.1,0.8
	c-0.5,0-1.4-0.1-2.8-0.2c-0.9-0.1-1.5-0.2-2-0.3v-29c1.5-0.3,3.4-0.4,5.5-0.4c1.7,0,3.3,0.2,4.8,0.7c1.5,0.5,2.8,1.2,3.9,2.3
	C90.8,72.5,91.7,73.9,92.4,75.8z"/>
</svg>
